<svg xmlns="http://www.w3.org/2000/svg" xmlns:xlink="http://www.w3.org/1999/xlink" viewBox="0,0,256,256" width="48px" height="48px" fill-rule="nonzero"><g fill="none" fill-rule="nonzero" stroke="none" stroke-width="1" stroke-linecap="butt" stroke-linejoin="miter" stroke-miterlimit="10" stroke-dasharray="" stroke-dashoffset="0" font-family="none" font-weight="none" font-size="none" text-anchor="none" style="mix-blend-mode: normal"><g transform="scale(5.33333,5.33333)"><path d="M44,24c0,11.044 -8.956,20 -20,20c-11.044,0 -20,-8.956 -20,-20c0,-11.044 8.956,-20 20,-20c11.044,0 20,8.956 20,20z" fill="#7fffd4"></path><path d="M23.913,36.113c-0.714,0.427 -1.506,0.637 -2.291,0.637c-0.771,0 -1.534,-0.196 -2.235,-0.602l-7.159,-4.133c-1.422,-0.82 -2.256,-2.291 -2.228,-3.937c0.028,-1.639 0.904,-3.089 2.354,-3.86l6.907,-3.706c1.415,-0.757 3.061,-0.75 4.399,0.021c1.268,0.736 2.059,2.073 2.109,3.58c0.028,0.967 -0.729,1.779 -1.695,1.807c-0.995,0.028 -1.779,-0.729 -1.807,-1.695c-0.007,-0.301 -0.133,-0.525 -0.357,-0.658c-0.28,-0.161 -0.651,-0.147 -0.995,0.035l-6.907,3.698c-0.448,0.245 -0.504,0.665 -0.504,0.834c-0.007,0.168 0.035,0.595 0.476,0.848l7.159,4.133c0.441,0.252 0.827,0.077 0.974,-0.007c0.147,-0.091 0.483,-0.35 0.469,-0.855l-0.054,-1.228c-0.025,-0.558 0.581,-0.919 1.06,-0.632l1.849,1.107c0.207,0.124 0.342,0.348 0.343,0.59c0.006,1.855 -0.544,3.226 -1.867,4.023z" fill="#000100"></path><path d="M38,20.232c-0.028,1.639 -0.911,3.082 -2.361,3.86l-6.907,3.706c-0.708,0.378 -1.464,0.567 -2.214,0.567c-0.757,0 -1.499,-0.196 -2.165,-0.574c-1.261,-0.729 -2.038,-2.059 -2.087,-3.566c-0.028,-0.967 0.729,-1.779 1.695,-1.807h0.107c0.955,0 1.644,0.787 1.702,1.741c0.017,0.277 0.128,0.479 0.334,0.599c0.266,0.154 0.63,0.133 0.974,-0.049l6.907,-3.699c0.455,-0.245 0.504,-0.665 0.511,-0.834c0,-0.175 -0.042,-0.595 -0.483,-0.848l-7.152,-4.133c-0.441,-0.252 -0.834,-0.077 -0.974,0.007c-0.147,0.091 -0.483,0.343 -0.469,0.855c0.031,0.441 0.057,0.803 0.078,1.1c0.04,0.57 -0.582,0.945 -1.067,0.645l-1.848,-1.144c-0.197,-0.122 -0.328,-0.333 -0.335,-0.564c-0.046,-1.551 0.423,-3.047 1.842,-3.897c1.408,-0.841 3.096,-0.855 4.525,-0.035l7.152,4.133c1.422,0.82 2.256,2.291 2.235,3.937z" fill="#000100"></path></g></g></svg>